<?xml version="1.0" encoding="utf-8"?>
<!-- Generator: Adobe Illustrator 23.0.1, SVG Export Plug-In . SVG Version: 6.00 Build 0)  -->
<svg version="1.1" id="Layer_1" xmlns="http://www.w3.org/2000/svg" xmlns:xlink="http://www.w3.org/1999/xlink" x="0px" y="0px"
	 width="64px" height="64px" viewBox="0 0 64 64" style="enable-background:new 0 0 64 64;" xml:space="preserve">
<style type="text/css">
	.st0{fill:none;stroke:#E40076;stroke-width:3;stroke-miterlimit:10;}
	.st1{fill:#8BC53F;}
</style>
<circle class="st0" cx="32" cy="32" r="29"/>
<g>
	<path class="st1" d="M27.5724,34.7201c0,0.5751-0.1084,1.1337-0.3253,1.6661c-0.2152,0.5356-0.5126,1.0056-0.8922,1.4065
		c-0.3779,0.4042-0.8265,0.7262-1.3424,0.9727c-0.5159,0.2465-1.0696,0.3713-1.6579,0.3713c-1.3457,0-2.3759-0.3615-3.0906-1.0812
		c-0.7147-0.723-1.1255-1.7351-1.234-3.0463h2.2165c0.1446,0.6112,0.3664,1.0647,0.6671,1.3506
		c0.299,0.2892,0.7805,0.4338,1.441,0.4338c0.2892,0,0.5554-0.0559,0.8018-0.1709c0.2465-0.115,0.4601-0.2662,0.6408-0.4502
		c0.1791-0.1873,0.3204-0.4075,0.4223-0.6605c0.1019-0.2497,0.1528-0.5126,0.1528-0.792c0-0.276-0.0509-0.5356-0.1528-0.7854
		c-0.1019-0.2432-0.2432-0.4568-0.4223-0.6375c-0.1807-0.1807-0.3943-0.3237-0.6408-0.4321
		c-0.2465-0.1084-0.5126-0.1627-0.8018-0.1627h-1.4591v-2.343h1.4591c0.2284,0,0.4321-0.0509,0.6129-0.1528
		s0.3303-0.235,0.4502-0.396c0.1199-0.1627,0.2136-0.3434,0.2793-0.5406c0.0657-0.1988,0.1002-0.3993,0.1002-0.6047
		c0-0.396-0.1364-0.7377-0.4058-1.0269c-0.2711-0.2875-0.6162-0.4321-1.0368-0.4321c-0.276,0-0.5077,0.0394-0.6934,0.1167
		c-0.1873,0.0789-0.3401,0.1873-0.4601,0.3253c-0.1199,0.138-0.2152,0.3056-0.2875,0.5044
		c-0.0723,0.1972-0.1331,0.4173-0.1807,0.6572h-2.2165c0.0361-0.5406,0.1495-1.0516,0.3418-1.5314
		c0.1922-0.4814,0.4502-0.9021,0.7755-1.2619c0.3237-0.3598,0.7147-0.6424,1.1715-0.8478c0.4568-0.2037,0.9727-0.3056,1.5494-0.3056
		c0.5159,0,0.9974,0.1052,1.4426,0.3155c0.4436,0.2103,0.8281,0.4896,1.1518,0.838c0.3253,0.3483,0.58,0.7509,0.7673,1.2077
		c0.1857,0.4568,0.2793,0.9366,0.2793,1.441c0,0.4683-0.0756,0.9398-0.2251,1.4147c-0.1512,0.4749-0.3943,0.9037-0.7312,1.2882
		C27.0614,32.2949,27.5724,33.4122,27.5724,34.7201z"/>
	<path class="st1" d="M32.8228,38.7414h-2.343V27.207h-1.4968v-2.3414h3.8399V38.7414z"/>
	<path class="st1" d="M43.819,31.8743c0,0.4683-0.0394,0.976-0.115,1.5215c-0.0789,0.5455-0.2005,1.0877-0.3615,1.6234
		c-0.161,0.5324-0.3713,1.0516-0.6309,1.5478c-0.2596,0.4995-0.5652,0.9398-0.9201,1.3178
		c-0.3516,0.3779-0.7591,0.6802-1.2159,0.9103c-0.4568,0.2267-0.9727,0.3418-1.5478,0.3418c-0.5784,0-1.0943-0.115-1.5511-0.3418
		c-0.4568-0.23-0.861-0.5324-1.2159-0.9103c-0.3549-0.3779-0.6622-0.8183-0.9201-1.3178c-0.258-0.4962-0.4683-1.0154-0.6309-1.5576
		c-0.161-0.5422-0.281-1.0812-0.3598-1.6217c-0.0789-0.5406-0.1167-1.045-0.1167-1.5133c0-0.4814,0.0378-0.9891,0.1167-1.5231
		c0.0789-0.5356,0.1988-1.0614,0.3598-1.5774c0.1627-0.5159,0.373-1.0121,0.6309-1.487c0.258-0.4749,0.5652-0.8922,0.9201-1.252
		c0.3549-0.3598,0.7591-0.6457,1.2159-0.856c0.4568-0.2103,0.9727-0.3155,1.5511-0.3155c0.5619,0,1.0779,0.1052,1.5412,0.3155
		c0.4601,0.2103,0.8708,0.4962,1.2225,0.856c0.3549,0.3598,0.6605,0.7772,0.9201,1.252c0.2596,0.4748,0.4699,0.9711,0.6309,1.487
		c0.161,0.5159,0.2826,1.0417,0.3615,1.5774C43.7796,30.8852,43.819,31.3929,43.819,31.8743z M41.3873,31.9088
		c0-0.3598-0.023-0.7985-0.0723-1.3145c-0.0493-0.5176-0.1544-1.0154-0.3155-1.4968c-0.161-0.4798-0.3976-0.8906-0.7098-1.234
		c-0.3155-0.3418-0.7361-0.5126-1.2619-0.5126c-0.5291,0-0.9464,0.1676-1.2553,0.5044c-0.3056,0.3352-0.5422,0.741-0.7098,1.2159
		c-0.1676,0.4748-0.276,0.9711-0.3253,1.487c-0.046,0.5159-0.0723,0.9497-0.0723,1.298c0,0.2284,0.0099,0.5077,0.0263,0.838
		c0.0197,0.3303,0.0559,0.672,0.1084,1.0269c0.0559,0.3516,0.1347,0.7065,0.2432,1.0549c0.1084,0.3483,0.2497,0.6605,0.4239,0.9366
		c0.1742,0.276,0.3878,0.5028,0.6408,0.6737c0.253,0.1775,0.5586,0.2629,0.9201,0.2629c0.3483,0,0.6474-0.0854,0.9004-0.253
		c0.253-0.1676,0.4633-0.3911,0.6408-0.6671c0.1709-0.276,0.3122-0.5882,0.4206-0.9366s0.1939-0.6967,0.253-1.045
		c0.0592-0.3483,0.0986-0.6852,0.1183-1.0089C41.3774,32.4149,41.3873,32.1372,41.3873,31.9088z"/>
	<g>
		<g>
			<path class="st1" d="M16.7741,32.2574l-2.0118,0.3212l0.7552,1.8664l-1.4367,0.829l-1.2566-1.5452l-1.2566,1.5452l-1.4367-0.829
				l0.7531-1.8664l-2.0118-0.3212v-1.619l2.0118-0.3212l-0.7531-1.8664l1.4367-0.829l1.2566,1.5452l1.2566-1.5452l1.4367,0.829
				l-0.7552,1.8664l2.0118,0.3212V32.2574z"/>
		</g>
	</g>
	<path class="st1" d="M55.1277,28.6161l-0.2217,1.6611h-1.7131l-0.4242,3.0526h1.6966l-0.2052,1.6611h-1.7295l-0.3557,2.6298
		h-1.8143l0.3557-2.6298H48.664l-0.3557,2.6298H46.494l0.3557-2.6298h-1.7131l0.2381-1.6611h1.7131l0.4242-3.0526h-1.7131
		l0.2381-1.6611h1.6966l0.3722-2.6298h1.8143l-0.3722,2.6298h2.0524l0.3722-2.6298h1.8143l-0.3722,2.6298H55.1277z M51.3786,30.2772
		h-2.0524l-0.4242,3.0526h2.0524L51.3786,30.2772z"/>
</g>
</svg>
