<?xml version="1.0" encoding="utf-8"?>
<!-- Generator: Adobe Illustrator 22.0.1, SVG Export Plug-In . SVG Version: 6.00 Build 0)  -->
<svg version="1.1" id="Layer_1" xmlns="http://www.w3.org/2000/svg" xmlns:xlink="http://www.w3.org/1999/xlink" x="0px" y="0px"
	 viewBox="0 0 64 64" style="enable-background:new 0 0 64 64;" xml:space="preserve">
<style type="text/css">
	.st0{fill:#00AAEC;}
	.st1{fill:none;stroke:#E40076;stroke-width:3;stroke-miterlimit:10;}
</style>
<path id="Twitter" class="st0" d="M53.022,18.629c-1.545,0.703-3.208,1.179-4.953,1.391c1.781-1.093,3.149-2.826,3.793-4.892
	c-1.668,1.012-3.511,1.749-5.481,2.144c-1.569-1.718-3.813-2.791-6.295-2.791c-4.76,0-8.622,3.96-8.622,8.845
	c0,0.694,0.074,1.366,0.222,2.015c-7.169-0.37-13.523-3.887-17.78-9.244c-0.743,1.311-1.167,2.832-1.167,4.451
	c0,3.067,1.522,5.775,3.837,7.362c-1.412-0.043-2.744-0.446-3.909-1.103v0.108c0,4.287,2.974,7.863,6.922,8.672
	c-0.723,0.208-1.486,0.311-2.273,0.311c-0.555,0-1.098-0.053-1.624-0.157c1.098,3.513,4.282,6.071,8.057,6.139
	c-2.951,2.373-6.673,3.788-10.712,3.788c-0.696,0-1.385-0.041-2.058-0.121c3.818,2.505,8.353,3.97,13.222,3.97
	c15.868,0,24.542-13.476,24.542-25.164c0-0.384-0.007-0.769-0.022-1.147C50.406,21.96,51.87,20.403,53.022,18.629"/>
<circle class="st1" cx="32" cy="32" r="29"/>
</svg>
