<?xml version="1.0" encoding="utf-8"?>
<!-- Generator: Adobe Illustrator 22.0.1, SVG Export Plug-In . SVG Version: 6.00 Build 0)  -->
<svg version="1.1" id="Layer_1" xmlns="http://www.w3.org/2000/svg" xmlns:xlink="http://www.w3.org/1999/xlink" x="0px" y="0px"
	 viewBox="0 0 64 64" style="enable-background:new 0 0 64 64;" xml:space="preserve">
<style type="text/css">
	.st0{fill:#CE1312;}
	.st1{fill:none;stroke:#E40076;stroke-width:3;stroke-miterlimit:10;}
</style>
<path id="Youtube" class="st0" d="M28.21,36.795l-0.002-10.386l9.917,5.211L28.21,36.795z M49.986,24.608
	c0,0-0.359-2.547-1.459-3.669c-1.396-1.473-2.961-1.48-3.677-1.565C39.713,19,32.008,19,32.008,19h-0.015c0,0-7.705,0-12.841,0.374
	c-0.718,0.086-2.282,0.093-3.679,1.565c-1.1,1.122-1.458,3.669-1.458,3.669s-0.367,2.992-0.367,5.983v2.805
	c0,2.992,0.367,5.983,0.367,5.983s0.358,2.547,1.458,3.669c1.397,1.473,3.231,1.427,4.048,1.581C22.456,44.912,32,45,32,45
	s7.713-0.011,12.849-0.386c0.717-0.086,2.282-0.093,3.677-1.566c1.1-1.122,1.459-3.669,1.459-3.669s0.367-2.991,0.367-5.982v-2.805
	C50.353,27.601,49.986,24.608,49.986,24.608L49.986,24.608z"/>
<circle class="st1" cx="32" cy="32" r="29"/>
</svg>
