<?xml version="1.0" encoding="utf-8"?>
<!-- Generator: Adobe Illustrator 22.0.1, SVG Export Plug-In . SVG Version: 6.00 Build 0)  -->
<svg version="1.1" id="Layer_1" xmlns="http://www.w3.org/2000/svg" xmlns:xlink="http://www.w3.org/1999/xlink" x="0px" y="0px"
	 viewBox="0 0 100 32" style="enable-background:new 0 0 100 32;" xml:space="preserve">
<style type="text/css">
	.st0{fill:#1B75BB;}
	.st1{fill:#8BC53F;}
</style>
<path id="XMLID_71_" class="st0" d="M18.8,1.5c0.3,0.1,0.7,0.1,1,0.2c1.4,0.4,2.7,1.1,3.8,2c3.3,2.6,6,5.7,8.1,9.3
	c0.4,0.7,0.6,1.4,0.6,2.3c-0.1-0.1-0.1-0.1-0.2-0.2c-2-3-4.2-5.7-6.8-8.1c-0.9-0.8-1.9-1.7-2.9-2.3c-2.3-1.3-4.6-1.3-7,0.1
	c-0.9,0.5-1.7,1.2-2.5,1.9c-1.9,1.7-3.8,3.5-5.6,5.2C7.2,12,7.1,12,7,12.1c-0.2,0.1-0.3,0.1-0.4-0.1c-0.6-0.6-1.1-1.2-1.7-1.8
	C5,10.1,5.1,10,5.2,9.9C6.7,8.5,8.3,7,9.9,5.6c0.8-0.7,1.5-1.4,2.3-2c1.4-1.2,3.1-1.8,5-2.1c0,0,0.1,0,0.1,0
	C17.8,1.5,18.3,1.5,18.8,1.5z"/>
<path id="XMLID_70_" class="st0" d="M3.2,16.7C3.6,17.3,4,18,4.5,18.6c1.8,2.5,3.9,4.9,6.2,7c0.8,0.7,1.6,1.4,2.6,1.9
	c2.4,1.2,4.7,1,7-0.4c1.2-0.8,2.3-1.8,3.3-2.7c1.5-1.3,2.9-2.7,4.3-4.1c0.1-0.1,0.1-0.1,0.2-0.2c0.4-0.4,0.5-0.3,0.9,0
	c0.5,0.5,1,1.1,1.5,1.7c-0.6,0.6-1.3,1.2-1.9,1.8c-1.8,1.6-3.6,3.2-5.4,4.8c-1.8,1.5-3.9,2.2-6.3,2.1c-1.1,0-2.2-0.4-3.2-1
	c-1.6-0.8-2.9-2-4.2-3.2c-2.2-2.1-4.1-4.5-5.7-7.2c-0.3-0.6-0.6-1.2-0.6-1.9c0,0,0-0.1,0-0.1C3.2,17,3.2,16.9,3.2,16.7z"/>
<path id="XMLID_68_" class="st1" d="M31.2,20.6c-0.6-0.7-1.1-1.3-1.7-2c-1.4-1.6-2.8-3.1-4.4-4.4c-0.6-0.5-1.7-0.8-2.6,0
	c-1.9,1.8-3.9,3.5-5.8,5.3c-0.4,0.4-0.9,0.8-1.3,1.1c-1.1,0.9-2.3,0.9-3.4,0.2c-0.7-0.5-1.3-1.1-1.9-1.6c-1.7-1.6-3.4-3.3-5-5.1
	c-0.4-0.4-0.7-0.9-1-1.4c-0.1-0.1-0.1-0.3-0.1-0.4C4,12,4.1,11.7,4.3,11.4c0.4,0.5,0.7,0.9,1.1,1.3c1.4,1.6,2.8,3.2,4.5,4.6
	c0.2,0.2,0.5,0.4,0.7,0.6c0.8,0.5,1.7,0.5,2.4-0.2c1-0.9,2-1.8,3.1-2.8c1.2-1.1,2.5-2.3,3.7-3.4c0.6-0.5,1.3-0.9,2.1-0.9
	c0.6,0,1.2,0.1,1.7,0.5c0.4,0.3,0.8,0.6,1.1,0.9c2.2,2.1,4.4,4.2,6.2,6.6c0.2,0.3,0.4,0.5,0.6,0.8c0.1,0.1,0.1,0.2,0,0.3
	C31.5,20,31.3,20.3,31.2,20.6z"/>
<path id="XMLID_67_" class="st0" d="M8.4,14.1c0.3-0.3,0.6-0.6,0.9-0.8c2.2-2,4.3-4,6.5-6.1c0.8-0.7,1.7-1.2,2.8-1.4
	c1.1-0.2,2.2,0,3.2,0.5c1.1,0.5,2.1,1.2,2.9,2c0.9,0.9,1.8,1.7,2.7,2.6c1.7,1.7,3.1,3.6,4.5,5.6c0.2,0.3,0.3,0.7,0.2,1.1
	c0,0.2-0.1,0.4-0.1,0.6c-0.1-0.1-0.1-0.2-0.2-0.2c-1.9-2.5-3.9-4.8-6.2-6.9c-0.8-0.7-1.5-1.4-2.4-2c-1.7-1.1-3.4-1-5,0.4
	c-2.4,2-4.6,4.2-6.9,6.3c-0.4,0.4-0.8,0.4-1.2,0c-0.5-0.5-1-0.9-1.4-1.4C8.7,14.3,8.6,14.2,8.4,14.1z"/>
<path id="XMLID_66_" class="st0" d="M3.4,13.8c0.6,0.7,1.1,1.4,1.7,2.1c2,2.4,4.1,4.6,6.4,6.6c0.7,0.6,1.4,1,2.3,1.2
	c1.2,0.2,2.2-0.2,3.1-0.9c2.4-2,4.6-4.1,6.8-6.3c0.1-0.1,0.2-0.2,0.4-0.3c0.3-0.2,0.6-0.2,0.9,0.1c0.6,0.6,1.2,1.1,1.8,1.7
	c0,0,0,0.1,0,0.1c-2.4,2.4-4.9,4.8-7.5,7.1c-1,0.9-2.2,1.3-3.5,1.3c-0.9,0-1.8-0.3-2.6-0.8c-1.2-0.6-2.1-1.5-3.1-2.3
	c-2.5-2.3-4.7-4.9-6.7-7.7c-0.2-0.3-0.3-0.6-0.2-0.9C3.3,14.3,3.4,14.1,3.4,13.8z"/>
<path id="XMLID_62_" class="st0" d="M45.7,12.9c0,1.3,0,2.6,0,3.9c-0.5,0-0.9,0-1.4,0c0-1.3,0-2.6,0-3.9c-1.7,0-3.4,0-5.2,0
	c0-2.4,0-4.8,0-7.2c1.7,0,3.4,0,5.2,0c0-0.9,0-1.7,0-2.5c0.5,0,0.9,0,1.4,0c0,0.8,0,1.7,0,2.5c1.8,0,3.5,0,5.2,0c0,2.4,0,4.8,0,7.2
	C49.2,12.9,47.5,12.9,45.7,12.9z M49.6,7.1c-1.3,0-2.6,0-3.8,0c0,1.5,0,3.1,0,4.6c1.3,0,2.6,0,3.8,0C49.6,10.1,49.6,8.6,49.6,7.1z
	 M44.3,11.7c0-1.5,0-3.1,0-4.6c-1.3,0-2.5,0-3.8,0c0,1.5,0,3.1,0,4.6C41.8,11.7,43.1,11.7,44.3,11.7z"/>
<path id="XMLID_59_" class="st0" d="M66.1,3.7c0,4.2,0,8.4,0,12.7c-4,0-7.9,0-11.9,0c0-4.2,0-8.4,0-12.7C58.2,3.7,62.1,3.7,66.1,3.7
	z M55.5,5c0,3.4,0,6.8,0,10.2c3.1,0,6.2,0,9.3,0c0-3.4,0-6.8,0-10.2C61.7,5,58.6,5,55.5,5z"/>
<path id="XMLID_58_" class="st0" d="M77.3,9.5c-0.1,0-0.1,0-0.2,0.1c-0.8,0.3-1.6,0.7-2.4,1c-0.1,0-0.2,0-0.2,0
	c-0.2-0.3-0.5-0.6-0.7-0.9c1.1-0.4,2.1-0.9,3.2-1.3c-0.5-0.4-0.9-0.8-1.4-1.2c0.3-0.3,0.6-0.5,0.9-0.8c0.5,0.4,1,0.8,1.5,1.2
	c0.5-0.2,1.6-1.3,2-2c-0.1,0-0.1,0-0.2,0c-1.1,0-2.1,0-3.2,0c-0.2,0-0.3,0-0.4,0.2c-0.6,0.6-1.1,1.3-1.7,1.9
	c-0.4-0.3-0.7-0.6-1.1-0.9c1.3-1,2.2-2.3,3-3.7c0.4,0.2,0.8,0.3,1.2,0.5c-0.1,0.3-0.3,0.5-0.4,0.8c1.4,0,2.8,0,4.3,0
	c0,0.6,0.1,1.1-0.3,1.6c-0.9,1.3-2,2.3-3.3,3.1c-0.1,0-0.1,0.1-0.2,0.1c0.4,0.1,0.8,0.1,1.2,0.2c-0.1,0.2-0.2,0.4-0.3,0.6
	c1.1,0,2.3,0,3.4,0c0,0.5,0,1-0.1,1.4c-0.7,2-2.1,3.4-3.9,4.3c-1.3,0.6-2.7,0.9-4.1,1c-0.1,0-0.2,0-0.2-0.1c-0.2-0.3-0.3-0.6-0.5-1
	c1.4-0.1,2.8-0.3,4.1-0.9c-0.4-0.4-0.8-0.8-1.3-1.2c0.3-0.3,0.7-0.5,1-0.8c0.5,0.5,0.9,1,1.4,1.5c1.1-0.7,1.9-1.6,2.2-2.9
	c-0.7,0-1.4,0-2.1,0c-0.4,0-0.7,0.1-1,0.4c-0.8,0.9-1.8,1.6-2.8,2.2c-0.1,0.1-0.2,0.1-0.3,0c-0.3-0.3-0.5-0.5-0.8-0.8
	c0.5-0.3,1-0.7,1.5-1c0.9-0.6,1.6-1.4,2.2-2.3C77.2,9.7,77.3,9.6,77.3,9.5C77.3,9.5,77.3,9.5,77.3,9.5L77.3,9.5
	C77.3,9.5,77.3,9.5,77.3,9.5z"/>
<path id="XMLID_57_" class="st0" d="M91.8,7.3c-0.6,0-1.1,0-1.7,0c0-0.4,0-0.8,0-1.3c0.6,0,1.1,0,1.7,0c0-0.9,0-1.9,0-2.8
	c0.5,0,0.9,0,1.4,0c0,0.9,0,1.8,0,2.8c1.2,0,2.4,0,3.6,0c0,0.1,0,0.1,0,0.2c-0.1,2-0.1,4-0.2,6c0,0.7,0,1.4-0.1,2.1
	c0,0.3-0.1,0.6-0.2,0.8c-0.3,0.7-0.8,1.2-1.6,1.3c-0.6,0-1.2,0-1.8,0c-0.1-0.4-0.2-0.9-0.3-1.4c0.2,0,0.4,0,0.6,0c0.3,0,0.7,0,1,0
	c0.5,0,0.7-0.3,0.8-0.8c0.1-2.3,0.2-4.5,0.3-6.8c0-0.1,0-0.1,0-0.2c-0.1,0-0.1,0-0.2,0c-0.6,0-1.2,0-1.9,0c-0.2,0-0.2,0-0.2,0.2
	c0,0.9,0,1.7-0.1,2.6c-0.1,1.9-0.6,3.6-1.7,5.2c-0.5,0.6-1,1.2-1.7,1.6c-0.3-0.3-0.7-0.6-1-0.9c0.3-0.2,0.5-0.4,0.7-0.6
	c1.3-1.2,2-2.6,2.2-4.3c0.2-1.2,0.2-2.4,0.2-3.6C91.9,7.5,91.9,7.4,91.8,7.3z"/>
<path id="XMLID_56_" class="st0" d="M69.4,14.1c-0.3-0.4-0.7-0.7-0.9-1c0.4-0.7,0.9-1.4,1.2-2.2c0.4-0.7,0.6-1.5,1-2.3
	c-0.7,0-1.3,0-2,0c0-0.4,0-0.8,0-1.2c0.7,0,1.4,0,2.1,0c0-0.6,0-1.2,0-1.9c-0.6,0.1-1.1,0.2-1.7,0.3C69,5.4,68.9,5,68.9,4.6
	c1.6-0.2,3.2-0.5,4.9-0.7C73.8,4.2,73.9,4.6,74,5c-0.6,0.1-1.1,0.3-1.7,0.4c-0.2,0-0.2,0.1-0.2,0.3c0,0.6,0,1.1,0,1.7
	c0.6,0,1.2,0,1.9,0c0,0.4,0,0.8,0,1.2c-0.6,0-1.2,0-1.9,0c0,0.2,0,0.4,0,0.6c0,0.1,0.1,0.2,0.2,0.2c0.6,0.5,1.3,1.1,1.9,1.6
	c0,0,0.1,0.1,0.1,0.1c-0.3,0.4-0.6,0.7-0.9,1c-0.4-0.4-0.9-0.8-1.3-1.3c0,2,0,4,0,5.9c-0.4,0-0.9,0-1.3,0c0-1.7,0-3.5,0-5.3
	C70.3,12.4,69.9,13.2,69.4,14.1z"/>
<path id="XMLID_55_" class="st0" d="M75.3,27.3c-0.4,0-0.7,0-1.1,0c0-1.9,0-3.7,0-5.5c0,0,0,0,0,0c-0.1,0.2-0.2,0.4-0.3,0.6
	c-0.7,1.6-1.3,3.2-2,4.8c-0.1,0.2-0.2,0.2-0.4,0.2c-0.2,0-0.3,0-0.4-0.2c-0.7-1.7-1.4-3.5-2.2-5.2c0-0.1-0.1-0.1-0.1-0.2
	c0,1.9,0,3.7,0,5.6c-0.4,0-0.7,0-1.1,0c0-2.5,0-5,0-7.5c0.5,0,0.9,0,1.4,0c0.1,0,0.1,0.1,0.2,0.2c0.7,1.7,1.4,3.4,2.1,5
	c0,0.1,0.1,0.2,0.1,0.3c0.4-0.9,0.7-1.8,1.1-2.6c0.4-0.9,0.8-1.8,1.1-2.7c0.1-0.2,0.1-0.2,0.3-0.2c0.4,0,0.8,0,1.2,0
	C75.3,22.3,75.3,24.8,75.3,27.3z"/>
<path id="XMLID_54_" class="st0" d="M90.5,8.1c0,0.4,0,0.8,0,1.3c-0.1,0-0.2,0-0.2,0c-0.9,0-1.7,0-2.6,0c-0.2,0-0.3,0.1-0.4,0.3
	c-0.2,0.6-0.4,1.2-0.6,1.8c-0.2,0.5-0.3,0.9-0.5,1.4c-0.2,0.5-0.4,0.9-0.6,1.4c1-0.2,1.9-0.5,2.9-0.7c-0.3-0.7-0.6-1.4-0.9-2.1
	c0.4-0.2,0.8-0.3,1.2-0.5c0.5,1.2,1,2.3,1.6,3.5c-0.4,0.2-0.9,0.3-1.3,0.5c0,0-0.1,0-0.1-0.1c0-0.2-0.2-0.3-0.4-0.2
	c-1.4,0.4-2.8,0.7-4.3,1.1c0,0-0.1,0-0.2,0c-0.1-0.3-0.2-0.6-0.3-0.9c0,0,0-0.1,0-0.1c0.8-1.1,1.3-2.5,1.7-3.8
	c0.2-0.5,0.3-1,0.4-1.5c-0.7,0-1.4,0-2.2,0c0-0.4,0-0.8,0-1.3C86.1,8.1,88.3,8.1,90.5,8.1z"/>
<path id="XMLID_53_" class="st0" d="M46.6,24.8c-0.4,1.5-2.3,2.7-4,2.5c-2-0.2-3.4-1.9-3.5-3.8c0-2,1.3-3.6,3.2-3.9
	c2-0.3,3.7,1,4.2,2.4c-0.3,0-0.7,0-1,0c-0.1,0-0.1-0.1-0.2-0.1c-0.6-0.9-1.4-1.3-2.5-1.3c-1.4,0-2.6,1.2-2.7,2.6
	c-0.1,1.5,0.9,2.8,2.3,3.1c1.1,0.2,2.3-0.3,2.9-1.3c0.1-0.1,0.1-0.2,0.3-0.2C46,24.8,46.3,24.8,46.6,24.8z"/>
<path id="XMLID_50_" class="st0" d="M83.3,26.9c-0.2,0.4-0.2,0.4-0.6,0.4c-0.1,0-0.2,0-0.3,0c0-2.7,0-5.4,0-8.1c0.4,0,0.7,0,1.1,0
	c0,1,0,2,0,3c0.1,0,0.1,0,0.1-0.1c1.2-0.9,2.7-0.2,3.2,0.7c0.6,1.1,0.5,2.7-0.3,3.6C85.8,27.4,84.5,27.9,83.3,26.9z M85.8,23.4
	c-0.1-0.4-0.4-0.6-0.8-0.6c-0.5-0.1-1,0.1-1.3,0.4c-0.1,0.1-0.1,0.2-0.1,0.3c0,0.8,0,1.6,0,2.3c0,0.1,0,0.2,0.1,0.2
	c0.4,0.6,1.7,0.8,2.2,0C86.2,24.7,85.8,23.4,85.8,23.4z"/>
<path id="XMLID_49_" class="st0" d="M51.9,27.3c-0.4,0-0.7,0-1.1,0c0-0.1,0-0.2,0-0.3c0-1,0-2,0-3.1c0-0.1,0-0.2,0-0.3
	c0-0.8-0.5-1.2-1.3-0.9c-0.4,0.1-0.7,0.4-1,0.8c0,0.1,0,0.2,0,0.3c0,1.1,0,2.1,0,3.2c0,0.1,0,0.2,0,0.3c-0.4,0-0.7,0-1.1,0
	c0-2.7,0-5.4,0-8.1c0.3,0,0.7,0,1,0c0,1.1,0,2.1,0,3.2c0.1-0.1,0.1-0.1,0.2-0.1c0.5-0.5,1.2-0.6,1.9-0.5c0.7,0.1,1.2,0.7,1.3,1.5
	c0,0.2,0,0.4,0,0.6c0,1,0,2.1,0,3.1C51.9,27.1,51.9,27.2,51.9,27.3z"/>
<path id="XMLID_46_" class="st0" d="M64.7,27.3c-0.3,0-0.5,0-0.8,0c-0.1,0-0.1-0.1-0.2-0.1c0-0.1,0-0.2-0.1-0.3
	c-0.3,0.1-0.6,0.3-0.9,0.4c-0.9,0.3-1.7,0.1-2.2-0.6c-0.7-1.1-0.1-2.5,1.2-2.7c0.6-0.1,1.1,0,1.6,0.1c0,0,0.1,0,0.1,0
	c0.1-0.7-0.3-1.3-1.1-1.4c-0.5,0-1,0.1-1.5,0.3c-0.1,0-0.1,0.1-0.2,0.1c0-0.3,0-0.6,0-0.9c0-0.1,0.1-0.1,0.1-0.1
	c0.8-0.3,1.6-0.4,2.4-0.2c0.9,0.3,1.4,0.9,1.4,1.8c0,1.2,0,2.3,0,3.5C64.7,27.2,64.7,27.2,64.7,27.3z M63.6,25.6c0-0.2,0-0.3,0-0.4
	c0-0.1-0.1-0.1-0.1-0.1c-0.4-0.1-0.9-0.2-1.3-0.1c-0.5,0.1-0.8,0.5-0.7,1c0.1,0.4,0.5,0.7,1,0.6c0.2,0,0.5-0.1,0.7-0.2
	C63.5,26.1,63.7,25.9,63.6,25.6z"/>
<path id="XMLID_38_" class="st0" d="M96.4,26.2c0,0.3,0,0.6,0,0.8c0,0.1-0.1,0.1-0.1,0.1c-1,0.4-2,0.5-3,0c-0.5-0.2-0.9-0.6-1-1.1
	c-0.4-1.1-0.3-2.1,0.2-3.2c0.5-0.9,1.7-1.3,2.7-0.9c0.6,0.2,1,0.6,1.2,1.2c0.2,0.5,0.3,1.2,0.2,1.8c-1.2,0-2.4,0-3.6,0
	c-0.1,0.6,0.4,1.2,1,1.4c0.6,0.2,1.3,0.1,1.9,0C96.1,26.3,96.3,26.2,96.4,26.2z M95.5,23.9c0-0.8-0.5-1.2-1.1-1.2
	c-0.6,0-1.2,0.6-1.3,1.2C94,23.9,94.8,23.9,95.5,23.9z"/>
<path id="XMLID_34_" class="st0" d="M81.7,24.6c0,1.5-1.3,2.8-2.8,2.8c-1.5,0-2.8-1.3-2.8-2.8c0-1.6,1.2-2.8,2.8-2.8
	C80.4,21.7,81.7,23,81.7,24.6z M78.9,26.4c1,0,1.8-0.8,1.9-1.9c0-1-0.8-1.9-1.8-1.9c-1,0-1.9,0.8-1.9,1.9
	C77,25.6,77.8,26.4,78.9,26.4z"/>
<path id="XMLID_33_" class="st0" d="M55.2,21.9c0.3,0,0.5,0,0.8,0c0.1,0.2,0.1,0.4,0.2,0.6c0.1-0.1,0.1-0.1,0.2-0.2
	c0.6-0.6,1.3-0.7,2.1-0.5c0.7,0.2,1.2,0.8,1.2,1.7c0,1.2,0,2.4,0,3.7c0,0,0,0,0,0.1c-0.3,0-0.7,0-1.1,0c0-0.1,0-0.2,0-0.3
	c0-1,0-2.1,0-3.1c0-0.1,0-0.2,0-0.3c0-0.7-0.4-1-1.1-0.9c-0.5,0.1-0.8,0.4-1.1,0.8c0,0.1,0,0.2,0,0.3c0,1.1,0,2.1,0,3.2
	c0,0.1,0,0.2,0,0.3c-0.3,0-0.7,0-1,0C55.2,25.5,55.2,23.7,55.2,21.9z"/>
<path id="XMLID_25_" class="st0" d="M90.2,19.2c0.4,0,0.7,0,1,0c0,2.7,0,5.4,0,8.1c-0.3,0-0.7,0-1,0C90.2,24.6,90.2,21.9,90.2,19.2z
	"/>
<path id="XMLID_24_" class="st0" d="M90,4.5c0,0.4,0,0.8,0,1.2c-1.9,0-3.7,0-5.6,0c0-0.4,0-0.8,0-1.2C86.3,4.5,88.1,4.5,90,4.5z"/>
<path id="XMLID_21_" class="st0" d="M54.1,27.3c-0.4,0-0.7,0-1,0c0-1.8,0-3.6,0-5.4c0.3,0,0.7,0,1,0C54.1,23.7,54.1,25.5,54.1,27.3z
	"/>
<path id="XMLID_20_" class="st0" d="M89,27.3c-0.4,0-0.7,0-1,0c0-1.8,0-3.6,0-5.4c0.3,0,0.7,0,1,0C89,23.7,89,25.5,89,27.3z"/>
<path id="XMLID_18_" class="st0" d="M54.1,20.9c-0.3,0-0.7,0-1,0c0-0.4,0-0.8,0-1.2c0.3,0,0.7,0,1,0C54.1,20.1,54.1,20.5,54.1,20.9z
	"/>
<path id="XMLID_17_" class="st0" d="M88,19.7c0.4,0,0.7,0,1,0c0,0.4,0,0.8,0,1.2c-0.3,0-0.7,0-1,0C88,20.5,88,20.2,88,19.7z"/>
<path id="XMLID_15_" class="st0" d="M59.5,8.9c0-0.6,0-1.2,0-1.8c-1,0-2.1,0-3.1,0c0-0.4,0-0.8,0-1.2c2.5,0,5,0,7.5,0
	c0,0.4,0,0.8,0,1.2c-1,0-2.1,0-3.1,0c0,0.6,0,1.2,0,1.7c0.9,0,1.9,0,2.8,0c0,0.4,0,0.8,0,1.2c-0.9,0-1.9,0-2.8,0c0,0.9,0,1.9,0,2.8
	c1.1,0,2.2,0,3.3,0c0,0.4,0,0.8,0,1.2c-2.6,0-5.3,0-7.9,0c0-0.4,0-0.8,0-1.2c1.1,0,2.2,0,3.3,0c0-0.9,0-1.8,0-2.8c-1,0-1.9,0-2.9,0
	c0-0.4,0-0.8,0-1.2C57.5,8.9,58.5,8.9,59.5,8.9z"/>
<path id="XMLID_14_" class="st0" d="M63.6,11.9c-0.4,0.3-0.7,0.5-1,0.8c-0.5-0.6-1-1.2-1.5-1.8c0.3-0.2,0.6-0.5,0.9-0.7
	C62.6,10.8,63.1,11.4,63.6,11.9z"/>
</svg>
